<?xml version="1.0" encoding="UTF-8"?>
<svg width="93px" height="93px" viewBox="0 0 93 93" version="1.1" xmlns="http://www.w3.org/2000/svg" xmlns:xlink="http://www.w3.org/1999/xlink">
    <title>Combined Shape</title>
    <g id="Page-1" stroke="none" stroke-width="1" fill="none" fill-rule="evenodd">
        <path d="M92.4,0.987604307 L92.4,92.9876043 L0.4,92.9876043 L0.4,0.987604307 L92.4,0.987604307 Z M51.2932211,6.05908484 C48.8187428,4.63044413 45.7700598,4.63044413 43.2955815,6.05908484 L43.2955815,6.05908484 L13.8486736,23.060265 C11.3741953,24.4889058 9.84985379,27.1291427 9.84985379,29.9864241 L9.84985379,29.9864241 L9.84985379,63.9887845 C9.84985379,66.8460659 11.3741953,69.4863029 13.8486736,70.9149436 L13.8486736,70.9149436 L43.2955815,87.9161238 C45.7700598,89.3447645 48.8187428,89.3447645 51.2932211,87.9161238 L51.2932211,87.9161238 L80.740129,70.9149436 C83.2146073,69.4863029 84.7389488,66.8460659 84.7389488,63.9887845 L84.7389488,63.9887845 L84.7389488,29.9864241 C84.7389488,27.1291427 83.2146073,24.4889058 80.740129,23.060265 L80.740129,23.060265 Z" id="Combined-Shape" fill="#F3F6FE"></path>
    </g>
</svg>