<?xml version="1.0" encoding="UTF-8"?>
<svg width="1087px" height="774px" viewBox="0 0 1087 774" version="1.1" xmlns="http://www.w3.org/2000/svg" xmlns:xlink="http://www.w3.org/1999/xlink">
    <title>画板备份 10</title>
    <defs>
        <linearGradient x1="21.8654997%" y1="17.5456051%" x2="75.2707759%" y2="78.6361047%" id="linearGradient-1">
            <stop stop-color="#FFB199" offset="0%"></stop>
            <stop stop-color="#FF0844" offset="100%"></stop>
        </linearGradient>
        <linearGradient x1="-64.7432739%" y1="-52.2029869%" x2="94.1257603%" y2="105.900578%" id="linearGradient-2">
            <stop stop-color="#FF9372" stop-opacity="0.3769941" offset="0%"></stop>
            <stop stop-color="#FFD770" offset="100%"></stop>
        </linearGradient>
        <linearGradient x1="100%" y1="24.0279192%" x2="40.396875%" y2="-14.629652%" id="linearGradient-3">
            <stop stop-color="#01E8F7" offset="0%"></stop>
            <stop stop-color="#00C2FF" stop-opacity="0.365056818" offset="100%"></stop>
        </linearGradient>
        <linearGradient x1="50%" y1="7.3789328%" x2="50%" y2="105.315643%" id="linearGradient-4">
            <stop stop-color="#FFFFFF" stop-opacity="0.16" offset="0%"></stop>
            <stop stop-color="#FFFFFF" stop-opacity="0" offset="100%"></stop>
        </linearGradient>
        <linearGradient x1="50.1098779%" y1="28.2840088%" x2="53.5728487%" y2="115.894439%" id="linearGradient-5">
            <stop stop-color="#FFFFFF" offset="0%"></stop>
            <stop stop-color="#FFFFFF" offset="100%"></stop>
        </linearGradient>
        <linearGradient x1="32.3555416%" y1="23.3172122%" x2="74.2041811%" y2="78.0812185%" id="linearGradient-6">
            <stop stop-color="#C2F5FF" offset="0%"></stop>
            <stop stop-color="#8EEDFF" offset="100%"></stop>
        </linearGradient>
        <linearGradient x1="32.355667%" y1="18.6677791%" x2="79.2740052%" y2="79.8813641%" id="linearGradient-7">
            <stop stop-color="#C2F5FF" offset="0%"></stop>
            <stop stop-color="#F5FDFF" offset="100%"></stop>
        </linearGradient>
    </defs>
    <g id="画板备份-10" stroke="none" stroke-width="1" fill="none" fill-rule="evenodd">
        <g id="编组-3" transform="translate(-1.000000, -161.000000)">
            <ellipse id="椭圆形" fill="url(#linearGradient-1)" opacity="0.763299851" cx="371.5" cy="466" rx="371.5" ry="466"></ellipse>
            <circle id="椭圆形" fill="url(#linearGradient-2)" cx="268" cy="669" r="267"></circle>
            <g id="imagetype" transform="translate(1.000000, 91.000000)">
                <path d="M117.127114,149.328357 C172.174291,98.6939683 236.217003,72.3339821 309.25525,70.2483988 L1087,70.2483988 L1087,844.25 L348.099557,844 C241.165683,842 156.465831,795.851575 94,705.554726 C0.301253435,570.109453 13.7442519,457 13.7442519,405 C13.7442519,353 34.5563483,225.279941 117.127114,149.328357 Z" id="矩形" fill="url(#linearGradient-3)" fill-rule="nonzero"></path>
                <path d="M339.893876,393.899275 C329.834919,383.90499 314.411667,378 294.741622,378 L225,378 L225,537 L252.494001,537 L252.489652,488.034231 L252.467911,488.045824 L252.467911,452.588353 L252.489652,452.591251 L252.494001,403.44 L292.505171,403.44 C312.828903,403.44 324.637308,412.3127 324.912697,429.182857 L324.917045,430.242133 L324.898203,431.347779 C324.344525,447.055776 311.953455,456.818209 292.729831,456.818209 L280.898236,456.813862 L266.735977,481.572796 L286.917667,481.577143 L325.364915,537 L358,537 L315.752378,476.806781 L317.158313,476.379303 C337.866141,469.833821 352.529898,454.550403 352.853118,429.500205 L352.858916,428.198934 C352.858916,414.342857 348.164253,402.758934 339.893876,393.899275 Z M696.427558,399.255726 C680.379274,385.607603 663.438935,378 636.467333,378 C589.725726,378 556.72407,414.340341 556.011585,457.571489 L556,459.447634 C556,505.093249 588.098017,540 636.91336,540 C664.552555,540 686.397742,528.811325 702,515.61011 L702,449.826041 L675.474424,473.991025 L675.474424,503.079259 C665.890636,510.239953 652.738631,514.938297 637.803966,514.938297 C606.398159,514.938297 585.378411,491.912349 584.767296,460.415452 L584.754263,458.552366 C584.754263,428.568864 606.821016,403.507161 635.352265,403.507161 C654.967318,403.507161 667.004255,409.772587 679.041193,420.065994 L696.427558,399.255726 Z M893,458.552366 C893,414.472382 859.801452,378 812.225014,378 C765.151802,378 731.724646,414.349047 731.011502,457.58745 L731,459.447634 C731,503.527618 764.202861,540 811.779299,540 C858.852511,540 892.266728,503.650953 892.985622,460.411099 L893,458.552366 Z M191,538 L122.648411,381 L97.3501477,381 L29,538 L56.2893097,538 L109.555943,413.736674 L163.213289,538 L191,538 Z M544,538 L475.648411,381 L450.350148,381 L382,538 L409.290751,538 L462.555943,413.736674 L516.213289,538 L544,538 Z M1032.22718,489.862931 L949.219938,382 L924,382 L924,538 L950.772819,538 L950.772819,427.016953 L1036.21003,538 L1059,538 L1059,382 L1032.22718,382 L1032.22718,489.862931 Z M759,459.557055 C759,429.395069 780.691064,405 811.782072,405 C842.626096,405 864.360746,429.113194 864.985471,458.672602 L865,460.444383 C865,490.604931 843.308936,515 812.232456,515 C781.373904,515 759.653783,490.886806 759.014529,461.327398 L759,459.557055 Z" id="形状" fill="#FFFFFF" opacity="0.269949777"></path>
                <g id="编组-2" transform="translate(379.000000, 0.000000)">
                    <g id="编组" opacity="0.650181362">
                        <circle id="椭圆形" fill="url(#linearGradient-4)" fill-rule="nonzero" cx="378" cy="378" r="378"></circle>
                        <path d="M674.065018,326.124059 C676.707045,271.615105 638.377571,235.453937 595.117383,210.626866 L567,374.698763 C586.46588,373.619326 595.984674,380.960035 599.443134,384.413704 C603.768885,388.731456 614.58594,401.68471 601.606009,422.19403 C628.644631,417.876278 670.874241,391.969769 674.065018,326.124059 Z" id="路径" fill="url(#linearGradient-5)" fill-rule="nonzero"></path>
                        <path d="M307.578107,135.690085 L274.300213,102.235843 C324.397738,96.1223232 456.581973,103.963577 584.544029,184.252695 C586.69099,192.886048 584.544029,205.833419 584.544029,205.833419 L595.278833,211.229264 C604.584101,224.540789 620.399338,262.380817 609.234079,307.275314 C598.071476,352.167154 578.817914,371.305129 570.588783,375.26031 C553.413096,375.26031 524.213897,385.188134 514.765144,429.218765 C505.319047,473.246738 487.213365,482.815725 479.34029,482.095393 L290.40242,484.253731 L165.876033,410.87289 L147.626866,258.712705 L183.05172,211.229264 L246.389722,159.431805 L291.4759,141.085931 L307.578107,135.690085 Z M530.723865,198.54504 C522.393763,207.226238 514.603059,211.391405 512.379041,212.521077 C463.729652,202.167965 446.203224,176.990897 446.203224,176.990897 C492.091855,176.706485 533.508537,187.625763 563.810445,206.096566 C563.810445,206.096566 547.407983,200.777804 530.723865,198.54504 Z" id="形状" fill="url(#linearGradient-6)"></path>
                        <path d="M513.84896,429.393848 C480.491709,445.743782 440.94459,455.210231 398.537746,455.210231 C279.34092,455.210231 182.713593,380.418378 182.713593,288.156333 C182.713593,220.006391 235.437771,161.38661 311.037086,135.402985 C167.256198,143.680155 51.7164179,259.053504 51.7164179,401.408624 C51.7164179,565.707005 198.341084,701.462687 379.210686,701.462687 C514.27154,701.462687 626.693795,623.246347 685.477612,518.600402 C604.594716,536.771419 508.844442,502.226576 513.84896,429.393848 Z" id="路径" stroke="#FFFFFF" stroke-width="4" fill-opacity="0.69" fill="url(#linearGradient-7)"></path>
                    </g>
                    <path d="M514.577487,428.959856 C481.260301,445.308065 441.76068,454.773516 399.40477,454.773516 C280.351109,454.773516 183.839838,379.989551 183.839838,287.737237 C183.839838,219.594483 236.50069,160.980885 312.009205,135 C168.401008,143.276297 53,258.637478 53,400.977583 C53,565.258636 199.448559,701 380.100923,701 C514.99956,701 627.286787,622.791909 686,518.157001 C605.214251,536.326102 509.57898,501.784903 514.577487,428.959856 Z" id="路径备份" stroke="#FFFFFF" stroke-width="4" opacity="0.616024926"></path>
                </g>
            </g>
        </g>
    </g>
</svg>