<svg width="788" height="552" viewBox="0 0 788 552" fill="none" xmlns="http://www.w3.org/2000/svg">
<path d="M393.516 0C393.516 0 147.384 0.000228348 85.6077 16.0524C52.5308 25.2944 25.2945 52.531 16.0524 86.0944C0.000365728 147.87 0 275.803 0 275.803C0 275.803 0.000365728 404.222 16.0524 465.025C25.2945 498.588 52.0443 525.338 85.6077 534.581C147.87 551.119 393.516 551.12 393.516 551.12C393.516 551.12 640.136 551.119 701.91 535.067C735.474 525.825 762.223 499.561 770.979 465.512C787.517 404.222 787.518 276.29 787.518 276.29C787.518 276.29 788.004 147.87 770.979 86.0944C762.223 52.531 735.474 25.7815 701.91 17.0257C640.136 0.000777868 393.516 0 393.516 0V0ZM315.2 157.604L519.988 275.803L315.2 393.516V157.604V157.604Z" fill="#FF0000"/>
</svg>
